<?xml version="1.0" standalone="no"?>
<!DOCTYPE svg PUBLIC "-//W3C//DTD SVG 20010904//EN"
 "http://www.w3.org/TR/2001/REC-SVG-20010904/DTD/svg10.dtd">
<svg version="1.0" xmlns="http://www.w3.org/2000/svg"
 width="128.000000pt" height="128.000000pt" viewBox="0 0 128.000000 128.000000"
 preserveAspectRatio="xMidYMid meet">

<g transform="translate(0.000000,128.000000) scale(0.100000,-0.100000)"
fill="#000000" stroke="none">
<path d="M25 1255 c-16 -16 -25 -35 -25 -57 0 -29 27 -59 262 -295 l262 -263
-262 -263 c-235 -236 -262 -266 -262 -295 0 -44 38 -82 82 -82 29 0 59 27 295
262 l263 262 263 -262 c236 -235 266 -262 295 -262 44 0 82 38 82 82 0 29 -27
59 -262 295 l-262 263 262 263 c235 236 262 266 262 295 0 44 -38 82 -82 82
-29 0 -59 -27 -295 -262 l-263 -262 -263 262 c-236 235 -266 262 -295 262 -22
0 -41 -9 -57 -25z"/>
</g>
</svg>
