<?xml version="1.0" standalone="no"?>
<!DOCTYPE svg PUBLIC "-//W3C//DTD SVG 20010904//EN"
 "http://www.w3.org/TR/2001/REC-SVG-20010904/DTD/svg10.dtd">
<svg version="1.0" xmlns="http://www.w3.org/2000/svg"
 width="225.000000pt" height="225.000000pt" viewBox="0 0 225.000000 225.000000"
 preserveAspectRatio="xMidYMid meet">

<g transform="translate(0.000000,225.000000) scale(0.100000,-0.100000)"
fill="#000000" stroke="none">
<path d="M105 1886 c-70 -32 -105 -101 -105 -208 1 -168 62 -228 230 -228 109
0 156 19 197 82 26 38 28 49 28 142 0 115 -12 147 -72 193 -34 26 -44 28 -142
31 -74 1 -115 -2 -136 -12z"/>
<path d="M902 1847 c-68 -25 -122 -105 -122 -178 1 -67 68 -149 138 -169 51
-14 1144 -14 1195 1 85 23 146 117 133 201 -8 52 -38 97 -84 129 l-36 24 -595
2 c-447 1 -604 -1 -629 -10z"/>
<path d="M105 1335 c-78 -42 -105 -96 -105 -210 0 -97 21 -150 76 -191 36 -28
41 -29 154 -29 112 0 118 1 153 28 60 46 72 78 72 192 0 114 -12 146 -72 192
-34 26 -44 28 -142 31 -83 2 -113 -1 -136 -13z"/>
<path d="M895 1291 c-67 -31 -115 -102 -115 -168 1 -37 31 -102 61 -130 58
-53 53 -53 676 -53 541 0 581 2 618 19 153 71 148 271 -7 335 -32 14 -115 16
-615 16 -541 0 -581 -2 -618 -19z"/>
<path d="M100 781 c-73 -39 -99 -95 -99 -211 -1 -110 38 -181 112 -209 41 -16
201 -14 240 3 72 29 107 102 107 216 -1 108 -30 164 -102 201 -52 27 -208 26
-258 0z"/>
<path d="M906 745 c-146 -52 -166 -250 -34 -330 32 -19 53 -20 643 -20 l610 0
37 23 c45 28 75 74 84 130 13 84 -49 178 -133 201 -25 7 -238 11 -603 11 -454
-1 -573 -4 -604 -15z"/>
</g>
</svg>
